
<svg width="416" height="385" viewBox="0 0 416 385" fill="" xmlns="http://www.w3.org/2000/svg">
<path fill-rule="evenodd" clip-rule="evenodd" d="M94.7013 117.68C84.7574 112.729 71.0257 100.397 61.8723 93.1964L46.629 79.8531C44.4604 77.7223 44.1368 76.7186 42.0757 74.6205C38.7126 71.1998 35.2234 68.5733 31.9493 65.1148C26.6337 59.4989 21.3159 47.4587 11.9529 46.7259C3.08407 62.4995 7.62544 73.8897 16.2586 88.534C17.6345 90.8662 19.3807 93.3609 21.0096 95.3119C25.3306 100.49 27.9618 102.189 32.8528 106.663C44.9567 117.735 83.4293 138.608 87.3452 143.639C74.7744 143.376 43.4277 125.319 31.3119 118.497C24.0807 114.425 4.72165 101.61 0 101.24V104.488V109.091V110.715V120.959C0.140086 126.379 0.968657 129.87 3.63897 133.293C12.965 145.25 36.7079 154.921 51.8231 159.765C55.7161 161.011 77.8975 166.91 79.9901 169.598C76.6954 169.34 73.3159 168.395 69.8822 167.862C50.1344 164.792 39.0764 162.969 19.8802 156.945C13.6806 154.999 7.50817 152.292 0 152.292V163.689C0.274742 169.138 1.56158 172.429 6.65462 177.179C12.9107 183.014 18.841 186.648 27.7891 189.305C42.6827 193.731 56.182 193.732 71.6609 194.743C75.2706 194.979 82.1207 195.938 85.5066 198.153C80.7524 198.153 72.2723 200.682 63.4773 200.783L14.7514 199.034C-0.220435 200.83 20.7772 227.741 50.5352 228.469C60.3173 228.708 66.5408 227.965 74.4833 226.716C80.9284 225.703 89.8678 223.246 96.5398 223.246V224.976C91.0895 225.091 79.231 230.408 69.6422 231.679C61.2653 232.79 62.247 231.463 55.6901 234.989C51.7612 237.101 47.2426 237.68 43.2127 239.687C47.8073 258.245 75.6127 257.815 92.5533 253.241L110.331 247.475C106.972 252.195 101.208 253.16 95.3018 255.828C89.3487 258.517 84.6314 261.146 79.0703 263.915C80.4397 269.447 82.5073 272.338 88.4126 274.16C109.046 280.524 129.002 265.478 137.914 264.78C133.608 270.832 128.057 269.992 123.203 278.625C126.175 280.498 126.336 282.034 129.973 283.503C141.275 288.073 150.241 282.692 160.9 280.356C160.243 287.786 149.841 290.338 148.027 297.661H157.222L148.027 312.372C134.629 311.322 135.024 301.167 121.364 309.776V314.968C125.132 314.672 126.369 314.102 131.478 314.102C130.194 315.152 131.484 314.408 129.224 315.443C119.285 319.996 119.756 322.061 122.284 332.273C128.896 328.107 123.146 322.759 134.236 321.89C133.209 325.514 129.689 327.949 129.898 332.189C130.103 336.37 133.631 338.386 136.994 340.061C136.994 331.007 137.311 327.505 145.664 325.681C153.161 324.046 158.869 325.029 159.06 333.139C161.679 332.565 162.886 331.509 164.577 329.677C163.991 323.045 159.266 321.527 158.142 317.564C158.664 311.65 164.103 311.224 165.497 306.315C168.132 307.975 168.833 308.512 169.175 312.372C178.014 310.15 178.917 292.912 187.563 290.739C183.577 298.558 184.508 303.745 172.812 322.717C168.35 329.954 156.495 345.751 156.302 353.906C173.605 353.906 171.307 351.442 181.127 345.253C179.497 351.837 169.618 369.025 176.562 370.401C187.027 372.476 192.31 360.582 197.676 354.771C197.676 359.992 198.662 368.048 199.721 372.749C200.974 378.311 202.763 382.697 208.709 384.191C212.061 381.88 214.848 376.737 216.211 372.214C217.767 367.046 217.904 361.749 217.904 354.771C228.076 361.182 221.59 370.346 242.729 370.346C240.696 362.136 238.385 352.964 234.454 345.253C239.793 345.671 240.066 349.714 244.055 351.793C245.559 352.575 256.075 354.406 258.18 353.787C260.374 353.142 260.107 352.138 259.152 348.984C258.029 345.271 255.121 342.24 252.835 339.202C251.568 337.516 250.577 335.79 249.331 333.847C244.343 326.064 229.178 300.076 228.937 289.874C232.03 291.823 235.428 297.694 237.219 301.117C239.295 305.087 241.403 311.114 246.407 312.372C247.2 309.166 247.924 309.952 248.245 306.315C250.729 307.879 254.755 311.697 256.421 314.269C260.127 319.991 256.637 320.408 251.923 322.755C251.923 325.6 252.833 331.318 253.762 333.139C258.187 332.027 255.889 330.309 259.461 327.253C263.413 323.869 273.661 324.868 277.495 328.973C279.928 331.578 279.506 333.78 279.506 338.331C291.592 337.383 283.654 327.507 282.264 321.89C287.542 324.273 290.839 324.408 291.458 331.408H294.216C296.504 322.166 294.093 319.048 286.356 315.443L294.242 314.68C294.14 299.549 277.477 310.599 269.392 312.372C265.892 310.165 260.389 302.15 259.278 297.661H267.553C264.492 292.216 255.141 285.549 254.681 280.356C261.772 280.911 267.582 285.087 274.984 285.552C282.376 286.016 289.253 283.316 292.378 277.76C287.705 271.193 282.061 270.529 278.586 265.646C287.531 266.346 298.724 273.588 308.251 274.941C319.453 276.531 334.169 275.104 336.51 265.646C328.575 257.054 310.057 253.649 305.249 247.475C315.081 247.68 327.818 256.114 342.936 256.178C357.249 256.238 371.299 251.769 372.368 239.687C364.97 236.003 346.631 233.312 333.09 228.195L323.893 224.736C323.632 224.627 322.879 224.298 322.64 224.184L320.88 223.246C329.914 223.246 338.231 225.382 346.62 226.711C366.278 229.822 388.866 227.965 401.813 212.019C404.256 209.01 406.387 207.114 406.387 201.613C397.219 197.049 381.219 199.298 369.614 199.887C363.261 200.21 355.858 199.87 349.381 199.884C346.119 199.891 342.681 200.142 339.483 199.681C336.321 199.226 334.522 198.153 330.074 198.153C335.156 191.624 384.966 199.697 408.457 177.604C417.839 168.78 415.58 168.606 415.58 152.292C408.13 152.292 402.259 154.557 395.941 156.307C382.827 159.938 370.889 164.065 357.277 166.646C351.682 167.706 341.156 169.598 335.59 169.598L341.617 166.617C362.277 158.992 397.276 151.02 412.164 134.366C417.765 128.099 415.58 112.032 415.58 101.24C409.672 102.535 400.259 108.871 394.98 112.137C380.648 121.006 344.276 142.455 329.155 143.639C332.2 139.358 350.69 129.21 356.349 125.968C374.383 115.637 394.426 100.862 403.329 82.7863C407.018 75.2981 410.055 63.7402 407.683 55.0236C406.773 51.6786 405.288 49.7184 404.547 46.7259C399.574 47.1153 396.268 51.4854 393.285 54.2969L383.649 64.2655C376.869 70.8953 370.327 76.7687 363.403 83.285C359.833 86.6454 356.942 89.5284 353.308 92.8203C347.731 97.8721 325.19 117.398 319.96 118.545C320.639 116.153 322.328 114.657 324.828 111.878L365.402 66.9953C377.404 51.3628 386.823 34.3566 381.771 14.5134C380.748 10.4929 379.988 9.09377 378.225 5.73649C376.227 1.93158 376.082 1.01587 371.448 0C361.87 7.83569 352.904 31.1322 342.323 47.8706C323.187 78.1413 301.934 99.9488 280.441 126.348C276.791 130.83 267.553 134.259 267.553 144.504C273.578 147.505 279.906 150.214 285.969 153.132C308.029 163.749 310.57 207.196 276.207 218.411C268.855 220.811 259.835 221.404 252.266 218.596C239.823 213.98 228.39 203.242 227.099 188.634H243.648C243.648 175.646 233.519 173.909 222.504 171.326C215.423 169.666 204.646 166.781 196.573 170.289C184.09 175.716 194.83 215.063 158.312 219.946C145.1 221.713 134.778 219.113 127.555 212.228C123.349 208.219 121.45 206.805 118.589 201.631C113.172 191.838 112.105 179.68 116.207 169.937C120.586 159.536 125.692 155.522 135.781 150.285C139.828 148.184 145.791 145.916 148.027 142.774C146.807 137.843 138.67 129.31 135.293 125.338C132.843 122.457 130.211 120.696 127.577 117.89C112.195 101.504 92.6727 76.1657 80.1671 57.8085L57.0041 19.9025C53.3716 13.0275 49.7022 6.63586 45.971 0C27.6067 1.43796 28.7328 39.4156 49.7783 65.6412C60.453 78.9435 70.9584 92.2337 83.4423 104.047C85.5306 106.024 93.9129 114.905 94.7013 117.68Z" fill="white"/>
</svg>
